<svg width="854" height="177" viewBox="0 0 854 177" fill="none" xmlns="http://www.w3.org/2000/svg">
<path d="M93.75 84.75L92.7543 81.9201L82.0089 85.7008L93.2226 87.7033L93.75 84.75ZM117.5 99.5L119.847 97.6318L117.5 99.5ZM120.25 151.25L117.736 149.613L117.731 149.62L117.726 149.628L120.25 151.25ZM100.5 168L101.757 170.724L101.779 170.714L101.8 170.704L100.5 168ZM0.75 174H-2.25V177H0.75V174ZM0.75 0.249985V-2.75002H-2.25V0.249985H0.75ZM97.5 6.25L96.2226 8.96445L97.5 6.25ZM116.75 22.5L114.216 24.1066L114.225 24.1208L114.235 24.135L116.75 22.5ZM115.25 70L117.593 71.8741L115.25 70ZM29.25 73.25H26.25V76.25H29.25V73.25ZM86.25 67L88.1333 69.3353L88.1418 69.3283L86.25 67ZM86.25 30.25L84.2797 32.5122L84.3184 32.546L84.3582 32.5783L86.25 30.25ZM29.25 23.5V20.5H26.25V23.5H29.25ZM90.5 143.75L88.5591 141.462L90.5 143.75ZM29.25 96.5V93.5H26.25V96.5H29.25ZM29.25 150.75H26.25V153.75H29.25V150.75ZM93.2226 87.7033C101.763 89.2284 109.058 93.7105 115.153 101.368L119.847 97.6318C112.942 88.9562 104.404 83.605 94.2774 81.7967L93.2226 87.7033ZM115.153 101.368C121.235 109.01 124.25 117.603 124.25 127.25H130.25C130.25 116.231 126.765 106.324 119.847 97.6318L115.153 101.368ZM124.25 127.25C124.25 135.522 122.075 142.95 117.736 149.613L122.764 152.887C127.759 145.217 130.25 136.644 130.25 127.25H124.25ZM117.726 149.628C113.571 156.092 107.446 161.332 99.2001 165.296L101.8 170.704C110.887 166.335 117.929 160.408 122.774 152.872L117.726 149.628ZM99.2428 165.276C91.0426 169.061 81.4033 171 70.25 171V177C82.0967 177 92.624 174.939 101.757 170.724L99.2428 165.276ZM70.25 171H0.75V177H70.25V171ZM3.75 174V0.249985H-2.25V174H3.75ZM0.75 3.24998H67V-2.75002H0.75V3.24998ZM67 3.24998C78.503 3.24998 88.212 5.19473 96.2226 8.96445L98.7774 3.53555C89.788 -0.694748 79.1637 -2.75002 67 -2.75002V3.24998ZM96.2226 8.96445C104.292 12.7617 110.235 17.8277 114.216 24.1066L119.284 20.8934C114.599 13.5057 107.708 7.73824 98.7774 3.53555L96.2226 8.96445ZM114.235 24.135C118.236 30.291 120.25 37.2177 120.25 45H126.25C126.25 36.1156 123.931 28.0424 119.265 20.865L114.235 24.135ZM120.25 45C120.25 54.4407 117.745 62.0791 112.907 68.1259L117.593 71.8741C123.422 64.5875 126.25 55.5593 126.25 45H120.25ZM112.907 68.1259C107.965 74.304 101.289 78.9172 92.7543 81.9201L94.7457 87.5799C104.211 84.2495 111.868 79.0293 117.593 71.8741L112.907 68.1259ZM29.25 76.25H64.5V70.25H29.25V76.25ZM64.5 76.25C74.245 76.25 82.2533 74.0771 88.1333 69.3352L84.3668 64.6647C79.9133 68.2562 73.4217 70.25 64.5 70.25V76.25ZM88.1418 69.3283C94.2956 64.3284 97.25 57.2375 97.25 48.5H91.25C91.25 55.7625 88.8711 61.005 84.3582 64.6716L88.1418 69.3283ZM97.25 48.5C97.25 39.9056 94.2797 32.9087 88.1418 27.9216L84.3582 32.5783C88.887 36.2579 91.25 41.4277 91.25 48.5H97.25ZM88.2204 27.9877C82.337 22.8636 74.2941 20.5 64.5 20.5V26.5C73.3726 26.5 79.8297 28.6364 84.2797 32.5122L88.2204 27.9877ZM64.5 20.5H29.25V26.5H64.5V20.5ZM26.25 23.5V73.25H32.25V23.5H26.25ZM67.75 153.75C77.8841 153.75 86.2383 151.3 92.4409 146.038L88.5591 141.462C83.7617 145.533 76.9492 147.75 67.75 147.75V153.75ZM92.4409 146.038C98.7208 140.709 101.75 133.312 101.75 124.25H95.75C95.75 131.855 93.2792 137.457 88.5591 141.462L92.4409 146.038ZM101.75 124.25C101.75 114.979 98.5263 107.357 91.9524 101.722L88.0476 106.278C93.1404 110.643 95.75 116.521 95.75 124.25H101.75ZM91.9524 101.722C85.4463 96.1456 76.9423 93.5 66.75 93.5V99.5C75.8911 99.5 82.887 101.854 88.0476 106.278L91.9524 101.722ZM66.75 93.5H29.25V99.5H66.75V93.5ZM26.25 96.5V150.75H32.25V96.5H26.25ZM29.25 153.75H67.75V147.75H29.25V153.75ZM182.721 167.5L181.232 170.105L181.248 170.114L181.264 170.122L182.721 167.5ZM157.971 142.5L155.346 143.953L155.351 143.962L155.356 143.971L157.971 142.5ZM183.471 42.75L182.031 40.1179L183.471 42.75ZM254.971 42.75L256.41 40.1179L254.971 42.75ZM279.971 142.25L277.381 140.736L279.971 142.25ZM253.971 167.5L255.393 170.141L255.4 170.138L255.407 170.134L253.971 167.5ZM238.471 146.25L237.048 143.609L237.034 143.616L237.02 143.624L238.471 146.25ZM254.221 130.5L251.616 129.012L254.221 130.5ZM254.471 79.75L251.839 81.1909L251.847 81.2044L251.854 81.2178L254.471 79.75ZM198.221 64L196.77 61.3743L196.755 61.3825L196.74 61.3909L198.221 64ZM183.471 79.75L186.114 81.1685L186.121 81.1553L186.128 81.142L183.471 79.75ZM189.221 139.5L187.011 141.529L187.033 141.553L187.055 141.576L189.221 139.5ZM217.971 173.25C205.437 173.25 194.196 170.443 184.178 164.878L181.264 170.122C192.246 176.224 204.504 179.25 217.971 179.25V173.25ZM184.209 164.895C174.186 159.168 166.323 151.229 160.585 141.029L155.356 143.971C161.619 155.104 170.255 163.832 181.232 170.105L184.209 164.895ZM160.595 141.046C154.875 130.719 151.971 118.732 151.971 105H145.971C145.971 119.601 149.066 132.615 155.346 143.953L160.595 141.046ZM151.971 105C151.971 91.4551 154.949 79.5616 160.828 69.2341L155.614 66.2659C149.159 77.6051 145.971 90.5449 145.971 105H151.971ZM160.828 69.2341C166.727 58.8714 174.745 50.9414 184.91 45.3821L182.031 40.1179C170.864 46.2252 162.048 54.9619 155.614 66.2659L160.828 69.2341ZM184.91 45.3821C195.099 39.8099 206.514 37 219.221 37V31C205.594 31 193.175 34.0234 182.031 40.1179L184.91 45.3821ZM219.221 37C231.927 37 243.342 39.8099 253.531 45.3821L256.41 40.1179C245.266 34.0234 232.848 31 219.221 31V37ZM253.531 45.3821C263.697 50.9414 271.715 58.8714 277.614 69.2341L282.828 66.2659C276.393 54.9619 267.578 46.2252 256.41 40.1179L253.531 45.3821ZM277.614 69.2341C283.492 79.5616 286.471 91.4551 286.471 105H292.471C292.471 90.5449 289.283 77.6051 282.828 66.2659L277.614 69.2341ZM286.471 105C286.471 118.531 283.415 130.413 277.381 140.736L282.561 143.764C289.193 132.42 292.471 119.469 292.471 105H286.471ZM277.381 140.736C271.323 151.099 263.054 159.128 252.534 164.866L255.407 170.134C266.887 163.872 275.952 155.068 282.561 143.764L277.381 140.736ZM252.548 164.859C242.183 170.44 230.677 173.25 217.971 173.25V179.25C231.598 179.25 244.092 176.227 255.393 170.141L252.548 164.859ZM217.971 154.5C225.804 154.5 233.138 152.625 239.922 148.876L237.02 143.624C231.137 146.875 224.804 148.5 217.971 148.5V154.5ZM239.893 148.891C246.932 145.101 252.574 139.429 256.825 131.988L251.616 129.012C247.868 135.571 243.009 140.399 237.048 143.609L239.893 148.891ZM256.825 131.988C261.14 124.438 263.221 115.398 263.221 105H257.221C257.221 114.602 255.302 122.562 251.616 129.012L256.825 131.988ZM263.221 105C263.221 94.625 261.232 85.6713 257.087 78.2822L251.854 81.2178C255.376 87.4954 257.221 95.375 257.221 105H263.221ZM257.102 78.3091C253.025 70.8634 247.553 65.1773 240.672 61.3743L237.77 66.6257C243.555 69.8227 248.25 74.6366 251.839 81.1909L257.102 78.3091ZM240.672 61.3743C233.888 57.6253 226.554 55.75 218.721 55.75V61.75C225.554 61.75 231.887 63.3746 237.77 66.6257L240.672 61.3743ZM218.721 55.75C210.887 55.75 203.553 57.6253 196.77 61.3743L199.672 66.6257C205.555 63.3746 211.888 61.75 218.721 61.75V55.75ZM196.74 61.3909C190.016 65.2071 184.716 70.9081 180.813 78.358L186.128 81.142C189.559 74.5919 194.092 69.7929 199.702 66.6091L196.74 61.3909ZM180.827 78.3315C176.868 85.7092 174.971 94.6443 174.971 105H180.971C180.971 95.3557 182.74 87.4575 186.114 81.1685L180.827 78.3315ZM174.971 105C174.971 120.326 178.851 132.644 187.011 141.529L191.43 137.471C184.59 130.022 180.971 119.34 180.971 105H174.971ZM187.055 141.576C195.311 150.191 205.688 154.5 217.971 154.5V148.5C207.254 148.5 198.464 144.809 191.387 137.424L187.055 141.576ZM346.145 56.25H343.145V67.1553L348.722 57.7845L346.145 56.25ZM362.645 40L364.112 42.6164L364.123 42.6106L364.133 42.6047L362.645 40ZM387.395 34H390.395V31H387.395V34ZM387.395 63.5V66.5H390.395V63.5H387.395ZM354.645 72L352.554 69.8482L352.539 69.8633L352.523 69.8787L354.645 72ZM346.145 174V177H349.145V174H346.145ZM317.645 174H314.645V177H317.645V174ZM317.645 36.25V33.25H314.645V36.25H317.645ZM346.145 36.25H349.145V33.25H346.145V36.25ZM348.722 57.7845C352.631 51.2174 357.756 46.1821 364.112 42.6164L361.177 37.3836C353.866 41.4845 347.991 47.2826 343.567 54.7155L348.722 57.7845ZM364.133 42.6047C370.605 38.9066 378.323 37 387.395 37V31C377.466 31 368.684 33.0934 361.156 37.3953L364.133 42.6047ZM384.395 34V63.5H390.395V34H384.395ZM387.395 60.5H380.145V66.5H387.395V60.5ZM380.145 60.5C368.494 60.5 359.129 63.4611 352.554 69.8482L356.735 74.1518C361.827 69.2055 369.462 66.5 380.145 66.5V60.5ZM352.523 69.8787C345.998 76.4042 343.145 87.2546 343.145 101.5H349.145C349.145 87.7454 351.958 78.9292 356.766 74.1213L352.523 69.8787ZM343.145 101.5V174H349.145V101.5H343.145ZM346.145 171H317.645V177H346.145V171ZM320.645 174V36.25H314.645V174H320.645ZM317.645 39.25H346.145V33.25H317.645V39.25ZM343.145 36.25V56.25H349.145V36.25H343.145ZM442.092 56.25H439.092V67.1553L444.67 57.7845L442.092 56.25ZM458.592 40L460.06 42.6164L460.07 42.6106L460.08 42.6047L458.592 40ZM483.342 34H486.342V31H483.342V34ZM483.342 63.5V66.5H486.342V63.5H483.342ZM450.592 72L448.501 69.8482L448.486 69.8633L448.47 69.8787L450.592 72ZM442.092 174V177H445.092V174H442.092ZM413.592 174H410.592V177H413.592V174ZM413.592 36.25V33.25H410.592V36.25H413.592ZM442.092 36.25H445.092V33.25H442.092V36.25ZM444.67 57.7845C448.579 51.2174 453.703 46.1821 460.06 42.6164L457.124 37.3836C449.814 41.4845 443.938 47.2826 439.514 54.7155L444.67 57.7845ZM460.08 42.6047C466.552 38.9066 474.27 37 483.342 37V31C473.413 31 464.632 33.0934 457.103 37.3953L460.08 42.6047ZM480.342 34V63.5H486.342V34H480.342ZM483.342 60.5H476.092V66.5H483.342V60.5ZM476.092 60.5C464.441 60.5 455.076 63.4611 448.501 69.8482L452.682 74.1518C457.774 69.2055 465.409 66.5 476.092 66.5V60.5ZM448.47 69.8787C441.945 76.4042 439.092 87.2546 439.092 101.5H445.092C445.092 87.7454 447.905 78.9292 452.713 74.1213L448.47 69.8787ZM439.092 101.5V174H445.092V101.5H439.092ZM442.092 171H413.592V177H442.092V171ZM416.592 174V36.25H410.592V174H416.592ZM413.592 39.25H442.092V33.25H413.592V39.25ZM439.092 36.25V56.25H445.092V36.25H439.092ZM534.039 167.5L532.551 170.105L532.566 170.114L532.582 170.122L534.039 167.5ZM509.289 142.5L506.665 143.953L506.669 143.962L506.674 143.971L509.289 142.5ZM534.789 42.75L533.35 40.1179L534.789 42.75ZM606.289 42.75L607.729 40.1179L606.289 42.75ZM631.289 142.25L628.699 140.736L631.289 142.25ZM605.289 167.5L606.711 170.141L606.719 170.138L606.726 170.134L605.289 167.5ZM589.789 146.25L588.367 143.609L588.352 143.616L588.338 143.624L589.789 146.25ZM605.539 130.5L602.934 129.012L605.539 130.5ZM605.789 79.75L603.158 81.1909L603.165 81.2044L603.173 81.2178L605.789 79.75ZM549.539 64L548.088 61.3743L548.073 61.3825L548.058 61.3909L549.539 64ZM534.789 79.75L537.433 81.1685L537.44 81.1553L537.447 81.142L534.789 79.75ZM540.539 139.5L538.329 141.529L538.351 141.553L538.373 141.576L540.539 139.5ZM569.289 173.25C556.756 173.25 545.514 170.443 535.496 164.878L532.582 170.122C543.564 176.224 555.822 179.25 569.289 179.25V173.25ZM535.527 164.895C525.504 159.168 517.641 151.229 511.904 141.029L506.674 143.971C512.937 155.104 521.574 163.832 532.551 170.105L535.527 164.895ZM511.913 141.046C506.193 130.719 503.289 118.732 503.289 105H497.289C497.289 119.601 500.385 132.615 506.665 143.953L511.913 141.046ZM503.289 105C503.289 91.4551 506.268 79.5616 512.146 69.2341L506.932 66.2659C500.477 77.6051 497.289 90.5449 497.289 105H503.289ZM512.146 69.2341C518.045 58.8714 526.063 50.9414 536.229 45.3821L533.35 40.1179C522.182 46.2252 513.366 54.9619 506.932 66.2659L512.146 69.2341ZM536.229 45.3821C546.418 39.8099 557.833 37 570.539 37V31C556.912 31 544.494 34.0234 533.35 40.1179L536.229 45.3821ZM570.539 37C583.246 37 594.661 39.8099 604.85 45.3821L607.729 40.1179C596.584 34.0234 584.166 31 570.539 31V37ZM604.85 45.3821C615.015 50.9414 623.033 58.8714 628.932 69.2341L634.146 66.2659C627.712 54.9619 618.896 46.2252 607.729 40.1179L604.85 45.3821ZM628.932 69.2341C634.811 79.5616 637.789 91.4551 637.789 105H643.789C643.789 90.5449 640.601 77.6051 634.146 66.2659L628.932 69.2341ZM637.789 105C637.789 118.531 634.734 130.413 628.699 140.736L633.879 143.764C640.511 132.42 643.789 119.469 643.789 105H637.789ZM628.699 140.736C622.641 151.099 614.373 159.128 603.853 164.866L606.726 170.134C618.206 163.872 627.271 155.068 633.879 143.764L628.699 140.736ZM603.867 164.859C593.501 170.44 581.995 173.25 569.289 173.25V179.25C582.916 179.25 595.41 176.227 606.711 170.141L603.867 164.859ZM569.289 154.5C577.123 154.5 584.456 152.625 591.24 148.876L588.338 143.624C582.455 146.875 576.122 148.5 569.289 148.5V154.5ZM591.211 148.891C598.251 145.101 603.892 139.429 608.144 131.988L602.934 129.012C599.186 135.571 594.327 140.399 588.367 143.609L591.211 148.891ZM608.144 131.988C612.458 124.438 614.539 115.398 614.539 105H608.539C608.539 114.602 606.62 122.562 602.934 129.012L608.144 131.988ZM614.539 105C614.539 94.625 612.551 85.6713 608.406 78.2822L603.173 81.2178C606.694 87.4954 608.539 95.375 608.539 105H614.539ZM608.42 78.3091C604.343 70.8634 598.872 65.1773 591.99 61.3743L589.088 66.6257C594.873 69.8227 599.568 74.6366 603.158 81.1909L608.42 78.3091ZM591.99 61.3743C585.206 57.6253 577.873 55.75 570.039 55.75V61.75C576.872 61.75 583.205 63.3746 589.088 66.6257L591.99 61.3743ZM570.039 55.75C562.205 55.75 554.872 57.6253 548.088 61.3743L550.99 66.6257C556.873 63.3746 563.206 61.75 570.039 61.75V55.75ZM548.058 61.3909C541.335 65.2071 536.034 70.9081 532.132 78.358L537.447 81.142C540.878 74.5919 545.41 69.7929 551.02 66.6091L548.058 61.3909ZM532.146 78.3315C528.187 85.7092 526.289 94.6443 526.289 105H532.289C532.289 95.3557 534.058 87.4575 537.433 81.1685L532.146 78.3315ZM526.289 105C526.289 120.326 530.17 132.644 538.329 141.529L542.749 137.471C535.908 130.022 532.289 119.34 532.289 105H526.289ZM538.373 141.576C546.629 150.191 557.006 154.5 569.289 154.5V148.5C558.572 148.5 549.782 144.809 542.705 137.424L538.373 141.576ZM853.963 36.25L856.828 37.1392L858.035 33.25H853.963V36.25ZM811.213 174V177H813.423L814.078 174.889L811.213 174ZM781.213 174L778.319 174.789L778.922 177H781.213V174ZM753.463 72.25L756.357 71.4606L753.463 60.8483L750.569 71.4606L753.463 72.25ZM725.713 174V177H728.004L728.607 174.789L725.713 174ZM695.713 174L692.849 174.894L693.507 177H695.713V174ZM652.713 36.25V33.25H648.634L649.849 37.1439L652.713 36.25ZM681.713 36.25L684.617 35.4962L684.034 33.25H681.713V36.25ZM710.463 147L707.559 147.754L710.438 158.843L713.363 147.766L710.463 147ZM739.713 36.25V33.25H737.402L736.812 35.4839L739.713 36.25ZM769.463 36.25L772.371 35.5115L771.796 33.25H769.463V36.25ZM797.463 146.5L794.555 147.238L800.367 147.251L797.463 146.5ZM825.963 36.25V33.25H823.64L823.058 35.4992L825.963 36.25ZM851.098 35.3608L808.348 173.111L814.078 174.889L856.828 37.1392L851.098 35.3608ZM811.213 171H781.213V177H811.213V171ZM784.107 173.211L756.357 71.4606L750.569 73.0394L778.319 174.789L784.107 173.211ZM750.569 71.4606L722.819 173.211L728.607 174.789L756.357 73.0394L750.569 71.4606ZM725.713 171H695.713V177H725.713V171ZM698.577 173.106L655.577 35.3561L649.849 37.1439L692.849 174.894L698.577 173.106ZM652.713 39.25H681.713V33.25H652.713V39.25ZM678.809 37.0038L707.559 147.754L713.367 146.246L684.617 35.4962L678.809 37.0038ZM713.363 147.766L742.613 37.0161L736.812 35.4839L707.562 146.234L713.363 147.766ZM739.713 39.25H769.463V33.25H739.713V39.25ZM766.555 36.9885L794.555 147.238L800.371 145.762L772.371 35.5115L766.555 36.9885ZM800.367 147.251L828.867 37.0008L823.058 35.4992L794.558 145.749L800.367 147.251ZM825.963 39.25H853.963V33.25H825.963V39.25Z" fill="white" fill-opacity="0.17"/>
</svg>
