<svg width="346" height="111" viewBox="0 0 346 111" fill="none" xmlns="http://www.w3.org/2000/svg">
<g filter="url(#filter0_d_1379_1310)">
<path d="M34.6 82.296C28.36 82.296 22.744 81.192 17.752 78.984C12.856 76.68 8.968 73.608 6.088 69.768C3.208 65.832 1.672 61.464 1.48 56.664H18.472C18.76 60.024 20.344 62.856 23.224 65.16C26.2 67.368 29.896 68.472 34.312 68.472C38.92 68.472 42.472 67.608 44.968 65.88C47.56 64.056 48.856 61.752 48.856 58.968C48.856 55.992 47.416 53.784 44.536 52.344C41.752 50.904 37.288 49.32 31.144 47.592C25.192 45.96 20.344 44.376 16.6 42.84C12.856 41.304 9.592 38.952 6.808 35.784C4.12 32.616 2.776 28.44 2.776 23.256C2.776 19.032 4.024 15.192 6.52 11.736C9.016 8.184 12.568 5.4 17.176 3.384C21.88 1.368 27.256 0.36 33.304 0.36C42.328 0.36 49.576 2.664 55.048 7.272C60.616 11.784 63.592 17.976 63.976 25.848H47.56C47.272 22.296 45.832 19.464 43.24 17.352C40.648 15.24 37.144 14.184 32.728 14.184C28.408 14.184 25.096 15 22.792 16.632C20.488 18.264 19.336 20.424 19.336 23.112C19.336 25.224 20.104 27 21.64 28.44C23.176 29.88 25.048 31.032 27.256 31.896C29.464 32.664 32.728 33.672 37.048 34.92C42.808 36.456 47.512 38.04 51.16 39.672C54.904 41.208 58.12 43.512 60.808 46.584C63.496 49.656 64.888 53.736 64.984 58.824C64.984 63.336 63.736 67.368 61.24 70.92C58.744 74.472 55.192 77.256 50.584 79.272C46.072 81.288 40.744 82.296 34.6 82.296ZM117.138 82.296C109.65 82.296 102.882 80.616 96.8339 77.256C90.7859 73.8 86.0339 69 82.5779 62.856C79.1219 56.616 77.3939 49.416 77.3939 41.256C77.3939 33.192 79.1699 26.04 82.7219 19.8C86.2739 13.56 91.1219 8.76 97.2659 5.39999C103.41 2.04 110.274 0.36 117.858 0.36C125.442 0.36 132.306 2.04 138.45 5.39999C144.594 8.76 149.442 13.56 152.994 19.8C156.546 26.04 158.322 33.192 158.322 41.256C158.322 49.32 156.498 56.472 152.85 62.712C149.202 68.952 144.21 73.8 137.874 77.256C131.634 80.616 124.722 82.296 117.138 82.296ZM117.138 68.04C121.362 68.04 125.298 67.032 128.946 65.016C132.69 63 135.714 59.976 138.018 55.944C140.322 51.912 141.474 47.016 141.474 41.256C141.474 35.496 140.37 30.648 138.162 26.712C135.954 22.68 133.026 19.656 129.378 17.64C125.73 15.624 121.794 14.616 117.57 14.616C113.346 14.616 109.41 15.624 105.762 17.64C102.21 19.656 99.3779 22.68 97.2659 26.712C95.1539 30.648 94.0979 35.496 94.0979 41.256C94.0979 49.8 96.2579 56.424 100.578 61.128C104.994 65.736 110.514 68.04 117.138 68.04ZM208.966 82.296C201.478 82.296 194.71 80.616 188.662 77.256C182.614 73.8 177.862 69 174.406 62.856C170.95 56.616 169.222 49.416 169.222 41.256C169.222 33.192 170.998 26.04 174.55 19.8C178.102 13.56 182.95 8.76 189.094 5.39999C195.238 2.04 202.102 0.36 209.686 0.36C217.27 0.36 224.134 2.04 230.278 5.39999C236.422 8.76 241.27 13.56 244.822 19.8C248.374 26.04 250.15 33.192 250.15 41.256C250.15 49.32 248.326 56.472 244.678 62.712C241.03 68.952 236.038 73.8 229.702 77.256C223.462 80.616 216.55 82.296 208.966 82.296ZM208.966 68.04C213.19 68.04 217.126 67.032 220.774 65.016C224.518 63 227.542 59.976 229.846 55.944C232.15 51.912 233.302 47.016 233.302 41.256C233.302 35.496 232.198 30.648 229.99 26.712C227.782 22.68 224.854 19.656 221.206 17.64C217.558 15.624 213.622 14.616 209.398 14.616C205.174 14.616 201.238 15.624 197.59 17.64C194.038 19.656 191.206 22.68 189.094 26.712C186.982 30.648 185.926 35.496 185.926 41.256C185.926 49.8 188.086 56.424 192.406 61.128C196.822 65.736 202.342 68.04 208.966 68.04ZM306.41 0.36C312.65 0.36 318.218 1.656 323.114 4.24799C328.106 6.83999 331.994 10.68 334.778 15.768C337.562 20.856 338.954 27 338.954 34.2V81H322.682V36.648C322.682 29.544 320.906 24.12 317.354 20.376C313.802 16.536 308.954 14.616 302.81 14.616C296.666 14.616 291.77 16.536 288.122 20.376C284.57 24.12 282.794 29.544 282.794 36.648V81H266.378V1.656H282.794V10.728C285.482 7.464 288.89 4.92 293.018 3.096C297.242 1.272 301.706 0.36 306.41 0.36Z" fill="white" fill-opacity="0.86" shape-rendering="crispEdges"/>
</g>
<defs>
<filter id="filter0_d_1379_1310" x="0.480469" y="0.359985" width="345.473" height="109.936" filterUnits="userSpaceOnUse" color-interpolation-filters="sRGB">
<feFlood flood-opacity="0" result="BackgroundImageFix"/>
<feColorMatrix in="SourceAlpha" type="matrix" values="0 0 0 0 0 0 0 0 0 0 0 0 0 0 0 0 0 0 127 0" result="hardAlpha"/>
<feOffset dx="3" dy="24"/>
<feGaussianBlur stdDeviation="2"/>
<feComposite in2="hardAlpha" operator="out"/>
<feColorMatrix type="matrix" values="0 0 0 0 0.439216 0 0 0 0 0.439216 0 0 0 0 0.439216 0 0 0 0.36 0"/>
<feBlend mode="normal" in2="BackgroundImageFix" result="effect1_dropShadow_1379_1310"/>
<feBlend mode="normal" in="SourceGraphic" in2="effect1_dropShadow_1379_1310" result="shape"/>
</filter>
</defs>
</svg>
