<svg width="42" height="30" viewBox="0 0 42 30" fill="none" xmlns="http://www.w3.org/2000/svg">
<path d="M24.2039 23.7501C23.9424 23.7507 23.6841 23.7095 23.4479 23.6295C23.2117 23.5494 23.0036 23.4326 22.8389 23.2876L14.3864 15.7876C14.129 15.5639 13.9883 15.2834 13.9883 14.9939C13.9883 14.7043 14.129 14.4238 14.3864 14.2001L23.1364 6.7001C23.4334 6.44483 23.8603 6.2843 24.323 6.25382C24.7858 6.22335 25.2465 6.32543 25.6039 6.5376C25.9613 6.74977 26.186 7.05466 26.2287 7.3852C26.2713 7.71573 26.1284 8.04483 25.8314 8.3001L18.0089 15.0001L25.5689 21.7001C25.7829 21.8836 25.9188 22.107 25.9606 22.3439C26.0024 22.5809 25.9483 22.8214 25.8047 23.0371C25.6611 23.2527 25.434 23.4345 25.1503 23.5609C24.8666 23.6872 24.5382 23.7529 24.2039 23.7501Z" fill="#545454"/>
</svg>
