<svg width="32" height="32" viewBox="0 0 32 32" fill="none" xmlns="http://www.w3.org/2000/svg">
<path d="M0.000141136 15.9971C-0.0366719 7.31278 7.13294 0.103756 15.7786 0.00113543C24.5422 -0.102853 31.9093 6.94902 31.9983 15.8029C32.0885 24.7638 24.9313 32.031 15.9363 31.9999C7.03194 31.9691 -0.00839427 24.7264 0.000141136 15.9971ZM11.4851 22.4095C11.8475 22.6202 12.0813 22.4604 12.3104 22.3122C12.6086 22.119 12.9162 21.935 13.1902 21.7108C13.683 21.3077 14.1996 21.2127 14.8495 21.2685C16.9118 21.4458 18.8008 20.909 20.4554 19.6333C23.6944 17.1362 23.6703 12.6086 20.4067 10.1395C17.8404 8.19799 14.2834 7.93065 11.5328 9.57688C9.39892 10.854 8.08864 12.6961 8.26443 15.3022C8.39161 17.1875 9.33175 18.6661 10.8431 19.7674C11.2446 20.0599 11.3992 20.3721 11.3853 20.8578C11.3707 21.3682 11.2827 21.8948 11.4851 22.4095ZM21.4918 23.5604C21.8497 23.2931 21.8544 23.0633 21.8224 22.8511C21.7297 22.235 22.0077 21.8541 22.4797 21.4767C23.0823 20.9947 23.5141 20.3405 23.6777 19.5664C23.9043 18.4946 23.8291 17.4801 22.9673 16.5544C22.6592 17.1539 22.4488 17.6146 22.5965 18.2457C22.8336 19.2587 22.4632 20.1371 21.6573 20.7933C21.2799 21.1006 20.9121 21.3989 20.7526 21.8834C20.3993 21.7412 20.1261 21.5757 19.769 21.6201C19.0876 21.7048 18.4205 21.6364 17.7483 21.4331C17.2482 21.2819 16.7001 21.2971 16.2171 21.7411C16.914 22.338 17.6874 22.5904 18.5066 22.6634C19.5796 22.7589 20.6971 22.6392 21.4918 23.5604Z" fill="url(#paint0_linear_574_14828)"/>
<path d="M11.4864 22.4093C11.2841 21.8946 11.372 21.368 11.3866 20.8576C11.4005 20.3719 11.2459 20.0597 10.8444 19.7672C9.33299 18.6659 8.39285 17.1873 8.26574 15.302C8.08994 12.6959 9.40029 10.8539 11.5341 9.57667C14.2847 7.93045 17.8417 8.19778 20.408 10.1393C23.6716 12.6084 23.6957 17.136 20.4567 19.6331C18.8021 20.9088 16.9132 21.4456 14.8508 21.2683C14.2009 21.2124 13.6843 21.3074 13.1915 21.7106C12.9175 21.9348 12.61 22.1188 12.3117 22.3119C12.0827 22.4602 11.8489 22.62 11.4864 22.4093ZM12.4188 20.7137C12.7269 20.623 12.858 20.6236 12.9257 20.5584C13.4548 20.0493 14.0689 20.0497 14.7543 20.1324C16.198 20.3065 17.5763 20.0404 18.879 19.3674C22.4499 17.5225 22.7873 13.1346 19.4701 10.8873C17.1145 9.29136 14.5719 9.22034 12.0985 10.5673C8.6699 12.4345 8.36829 16.5972 11.4458 18.8692C12.0624 19.3245 12.6905 19.6931 12.4188 20.7137Z" fill="white"/>
<path d="M21.4935 23.5603C20.6987 22.639 19.5812 22.7589 18.5082 22.6632C17.689 22.5902 16.9156 22.3377 16.2188 21.7409C16.7017 21.297 17.2498 21.2817 17.7499 21.4329C18.4221 21.6362 19.0893 21.7047 19.7707 21.6199C20.1277 21.5756 20.4009 21.741 20.7542 21.8832C20.9137 21.3988 21.2815 21.1004 21.6589 20.7931C22.4649 20.1369 22.8353 19.2585 22.5981 18.2454C22.4504 17.6144 22.6608 17.1537 22.9689 16.5542C23.8306 17.4799 23.906 18.4943 23.6793 19.5662C23.5157 20.3403 23.084 20.9946 22.4813 21.4765C22.0093 21.8538 21.7313 22.2347 21.824 22.8509C21.8561 23.0631 21.8514 23.2929 21.4935 23.5603Z" fill="white"/>
<path d="M12.416 20.7139C12.6877 19.6933 12.0595 19.3247 11.4429 18.8695C8.36545 16.5975 8.66705 12.4347 12.0957 10.5676C14.5691 9.22064 17.1117 9.29166 19.4673 10.8876C22.7844 13.1349 22.4471 17.5229 18.8762 19.3677C17.5735 20.0407 16.1951 20.3068 14.7515 20.1327C14.0661 20.05 13.452 20.0496 12.9228 20.5587C12.8551 20.6238 12.7241 20.6233 12.416 20.7139ZM19.6981 15.036C19.6778 14.582 19.3003 14.221 18.8444 14.2197C18.3605 14.2183 17.9525 14.6227 17.9566 15.0998C17.9605 15.5641 18.4026 15.9906 18.86 15.9714C19.3225 15.9519 19.7192 15.5092 19.6981 15.036ZM13.153 15.0455C13.1338 14.5814 12.7645 14.2166 12.3092 14.2121C11.842 14.2075 11.4063 14.6333 11.4059 15.0949C11.4056 15.5517 11.8568 15.9914 12.3107 15.9768C12.779 15.9616 13.1728 15.5261 13.153 15.0455ZM16.4801 15.0892C16.4837 14.5996 16.081 14.1932 15.6039 14.205C15.1401 14.2165 14.7772 14.5716 14.7585 15.0325C14.7387 15.5181 15.1265 15.9529 15.5911 15.9659C16.066 15.9792 16.4766 15.5744 16.4801 15.0892Z" fill="url(#paint1_linear_574_14828)"/>
<path d="M19.6985 15.0361C19.7197 15.5093 19.323 15.952 18.8605 15.9714C18.4031 15.9906 17.961 15.5641 17.9571 15.0998C17.953 14.6228 18.361 14.2184 18.8449 14.2197C19.3008 14.2211 19.6784 14.5822 19.6985 15.0361Z" fill="white"/>
<path d="M13.1532 15.0454C13.173 15.5261 12.7793 15.9615 12.311 15.9766C11.857 15.9913 11.4059 15.5516 11.4063 15.0948C11.4066 14.6332 11.8423 14.2073 12.3095 14.212C12.7647 14.2165 13.134 14.5813 13.1532 15.0454Z" fill="white"/>
<path d="M16.4802 15.0891C16.4766 15.5742 16.0661 15.9791 15.5912 15.9658C15.1267 15.9528 14.7388 15.5181 14.7585 15.0323C14.7772 14.5715 15.1402 14.2163 15.604 14.2048C16.0811 14.193 16.4839 14.5995 16.4802 15.0891Z" fill="white"/>
<defs>
<linearGradient id="paint0_linear_574_14828" x1="15.9346" y1="0.259634" x2="16.065" y2="31.795" gradientUnits="userSpaceOnUse">
<stop stop-color="#1BD1FE"/>
<stop offset="0.999" stop-color="#1D6DF2"/>
</linearGradient>
<linearGradient id="paint1_linear_574_14828" x1="15.3911" y1="0.136038" x2="15.7169" y2="32.1926" gradientUnits="userSpaceOnUse">
<stop stop-color="#1BD1FE"/>
<stop offset="0.999" stop-color="#1D6DF2"/>
</linearGradient>
</defs>
</svg>
