<svg width="32" height="32" viewBox="0 0 32 32" fill="none" xmlns="http://www.w3.org/2000/svg">
<path d="M15.5415 31.9873C24.125 31.9873 31.083 25.0292 31.083 16.4458C31.083 7.86248 24.125 0.904297 15.5415 0.904297C6.95818 0.904297 0 7.86248 0 16.4458C0 25.0292 6.95818 31.9873 15.5415 31.9873Z" fill="#FE0000"/>
<path d="M25.4534 20.4973C24.6303 20.3666 23.7811 20.3405 22.971 20.5234C18.7769 21.5948 20.3579 23.3847 19.4302 20.8631C19.4302 20.85 19.0906 20.641 19.0775 20.6279C19.0514 20.5757 19.0252 20.5365 18.986 20.4973C18.4633 19.7264 17.6794 19.1646 16.7779 18.9294C16.7648 18.9163 16.7518 18.9163 16.7387 18.9163C15.4975 18.5766 14.0864 18.8118 13.0804 19.6349C12.7276 19.8962 12.3748 20.0791 12.1135 20.432L11.9959 20.5234C11.9437 20.5757 11.9175 20.6279 11.8783 20.6802L11.7216 20.8239C11.4341 21.2419 11.5125 21.6079 11.3165 22.0782C11.2643 22.1174 11.2643 22.3003 11.1989 22.2349C10.9768 21.9998 10.7547 21.7777 10.5065 21.5948C9.16071 20.432 7.27927 20.1052 5.56769 20.4581C5.50236 21.5033 6.06418 22.4831 6.67825 23.2802C7.3446 24.1034 8.12853 24.8088 8.97778 25.4229C9.51348 25.8279 10.0753 26.1676 10.6632 26.4943C10.7024 26.5335 10.7416 26.5597 10.7939 26.5597C10.82 26.5727 10.8462 26.5858 10.8723 26.5988C10.8984 26.6119 10.9115 26.638 10.9507 26.638C11.2773 26.834 11.6301 27.0038 11.9829 27.1475C11.9829 27.1475 11.9829 27.1475 11.9829 27.1345C11.9829 27.1345 11.9829 27.1345 11.9829 27.1475C12.0221 27.1737 12.0743 27.1998 12.1266 27.1998C12.1396 27.2259 12.1919 27.252 12.218 27.239C12.218 27.239 12.218 27.239 12.205 27.252C12.218 27.2651 12.2311 27.2782 12.2572 27.2782C12.2834 27.2912 12.3095 27.3043 12.3356 27.3043C12.3487 27.3174 12.3748 27.3304 12.401 27.3304C12.4271 27.3435 12.4402 27.3566 12.4663 27.3566C12.5316 27.3959 12.61 27.4089 12.6753 27.4351C12.7145 27.4481 12.7407 27.4612 12.7799 27.4743C12.8713 27.5135 12.9889 27.5526 13.0934 27.5788C17.1568 28.9898 21.7951 26.5988 24.3559 23.437C24.382 23.4108 24.3951 23.3847 24.3951 23.3586C24.4865 23.3063 24.5519 23.1757 24.5911 23.0842C24.6564 22.9797 24.7348 22.8752 24.8001 22.7446C24.8132 22.7315 24.8262 22.7184 24.8262 22.7054C24.8525 22.6531 24.8917 22.6138 24.9047 22.5615C25.2313 21.9867 25.6102 21.1244 25.4534 20.4973ZM8.86019 25.3054C8.87326 25.3054 8.87326 25.3054 8.86019 25.3054C8.87326 25.3054 8.87326 25.3054 8.86019 25.3054ZM11.212 22.3133C11.2251 22.3133 11.2251 22.3133 11.212 22.3133C11.2251 22.3264 11.212 22.3133 11.212 22.3133ZM11.9306 27.1083C11.9306 27.1083 11.9175 27.1083 11.9306 27.1083C11.9175 27.1083 11.9306 27.1083 11.9306 27.1083ZM14.2171 27.8009C14.2301 27.8009 14.2171 27.8009 14.2171 27.8009V27.8009ZM19.8744 26.8601C19.8744 26.8601 19.8613 26.8601 19.8744 26.8601C19.8613 26.8601 19.8744 26.8601 19.8744 26.8601Z" fill="#FDFDFD"/>
<path d="M21.0909 8.03298C27.4147 2.10123 25.2066 11.1426 24.0176 14.6964C24.5271 15.9376 25.2066 17.205 25.3634 18.5899C25.4287 19.2171 25.5724 19.9487 25.5071 20.5367C23.7694 20.1708 21.8487 20.5759 20.4899 21.7388C19.3924 22.8493 20.0718 21.9086 18.9874 20.4975C16.7924 17.4402 12.4415 18.7729 11.3571 22.1046C11.3179 22.1829 11.2918 22.3789 11.1873 22.2483C9.8023 20.6674 7.62037 20.0924 5.59521 20.4845C5.556 18.4854 6.31381 16.5256 7.07161 14.7356C6.19622 12.227 5.17711 8.68625 6.28768 6.15155C7.33292 5.41988 9.24048 7.43197 10.0244 8.08524C12.925 11.2994 11.0827 9.14355 15.8255 9.30034C20.4507 9.39179 18.1904 11.1687 21.0909 8.03298Z" fill="#FDA000"/>
<path d="M9.67052 11.0252C9.42228 11.2473 9.17404 11.4695 8.95192 11.7046C8.79514 11.8745 8.63834 12.0313 8.49463 12.2011C8.32478 12.4102 8.15492 12.6323 7.98508 12.8413C7.84136 13.0373 7.71071 13.2464 7.56697 13.4293C7.55391 13.4424 7.55391 13.4685 7.52778 13.4685C7.50165 13.4685 7.51472 13.4424 7.50165 13.4293C7.42326 13.1941 7.34486 12.972 7.26648 12.7368C7.18808 12.5147 7.12276 12.2795 7.05742 12.0443C6.99209 11.7961 6.92677 11.5478 6.86144 11.2996C6.83531 11.182 6.79612 11.0775 6.78305 10.9599C6.74385 10.7639 6.70466 10.5679 6.66546 10.3589C6.63934 10.2021 6.61319 10.0584 6.60013 9.90158C6.58707 9.79706 6.574 9.70559 6.56094 9.60108C6.54787 9.32669 6.52175 9.03926 6.53481 8.76487C6.53481 8.62115 6.56094 8.4905 6.574 8.34678C6.60013 8.21612 6.574 8.22919 6.73078 8.24225C6.9529 8.26838 7.17501 8.33371 7.38407 8.42518C7.68456 8.54277 7.94588 8.71261 8.19413 8.9086C8.41624 9.09151 8.61222 9.30057 8.79514 9.52268C8.88659 9.64027 8.99111 9.77093 9.08257 9.88852C9.17404 10.0061 9.2655 10.1368 9.34388 10.2674C9.40922 10.385 9.48761 10.5157 9.566 10.6333C9.61827 10.7247 9.67052 10.8292 9.72278 10.9338C9.73586 10.9991 9.70971 11.0122 9.67052 11.0252Z" fill="#FE7900"/>
<path d="M24.3316 8.25532C24.3577 8.35984 24.3708 8.45129 24.3708 8.55582C24.3838 8.67341 24.3838 8.791 24.3969 8.90859C24.3969 9.07845 24.3838 9.24829 24.3838 9.41814C24.3838 9.53573 24.3708 9.64026 24.3577 9.75785C24.3316 9.97996 24.3055 10.2151 24.2663 10.4373C24.2271 10.6463 24.1879 10.8684 24.1487 11.0775C24.0964 11.2996 24.0442 11.5086 23.9789 11.7307C23.9005 12.0443 23.796 12.3579 23.7045 12.6715C23.6653 12.8021 23.626 12.9328 23.5868 13.0504C23.5476 13.1941 23.4823 13.3247 23.4431 13.4554C23.43 13.4946 23.4039 13.4946 23.3908 13.4685C23.2863 13.3117 23.1818 13.1549 23.0642 12.9981C22.9989 12.9066 22.9336 12.8152 22.8683 12.7368C22.7768 12.6192 22.6854 12.5016 22.5939 12.3971C22.4633 12.2272 22.3194 12.0705 22.1757 11.9137C22.019 11.7438 21.8622 11.587 21.7054 11.4302C21.5748 11.2996 21.4311 11.182 21.2874 11.0513C21.2219 10.9991 21.2219 10.9991 21.2611 10.9207C21.3788 10.6594 21.5487 10.4111 21.7054 10.1629C21.8491 9.9277 22.019 9.71865 22.2019 9.49654C22.3064 9.36588 22.437 9.24829 22.5547 9.11764C22.6984 8.96086 22.8813 8.8302 23.0512 8.71261C23.1949 8.62115 23.3386 8.51663 23.4953 8.46436C23.6914 8.38597 23.8743 8.30757 24.0834 8.29451C24.1618 8.28145 24.2271 8.25532 24.3055 8.25532C24.2924 8.25532 24.3185 8.24225 24.3316 8.25532Z" fill="#FE7900"/>
<path d="M12.8832 18.7859C12.5043 18.7729 12.1254 18.7075 11.7465 18.6291C11.25 18.5115 10.7535 18.3548 10.2962 18.1327C10.048 18.0151 9.79972 17.8713 9.59068 17.6754C9.49922 17.5839 9.42082 17.4924 9.42082 17.3487C9.40776 17.0744 9.39469 16.8 9.46002 16.5256C9.46002 16.4995 9.47309 16.4864 9.47309 16.4603C9.56454 16.212 9.55148 16.2251 9.82586 16.2512C10.2309 16.2904 10.5837 16.4733 10.9364 16.6432C11.5113 16.9306 12.0731 17.2703 12.6088 17.6231C12.857 17.7929 13.0792 17.9889 13.249 18.2372C13.3143 18.3417 13.3535 18.4332 13.3797 18.5507C13.3927 18.6422 13.3666 18.6683 13.2882 18.7075C13.1576 18.7859 13.0269 18.7859 12.8832 18.7859Z" fill="black"/>
<path d="M21.8337 17.0089C21.8337 17.1657 21.8206 17.3094 21.8076 17.4531C21.8076 17.4923 21.7814 17.5185 21.7553 17.5446C21.5855 17.7406 21.3764 17.8843 21.1542 18.015C20.6186 18.3155 20.0306 18.4984 19.4296 18.6421C19.1553 18.7074 18.8808 18.7466 18.6065 18.7728C18.4366 18.7858 18.2537 18.7858 18.0839 18.7466C18.0578 18.7336 18.0186 18.7205 17.9924 18.7074C17.9402 18.6813 17.9141 18.6421 17.9141 18.5637C17.9533 18.3677 18.0447 18.211 18.1623 18.0672C18.3582 17.819 18.6195 17.6361 18.8808 17.4662C19.3512 17.1657 19.8216 16.8652 20.3181 16.6169C20.6317 16.4602 20.9452 16.3164 21.285 16.238C21.3895 16.2119 21.494 16.2119 21.6116 16.2119C21.6508 16.2119 21.6769 16.225 21.69 16.2642C21.7945 16.4471 21.8076 16.6431 21.8206 16.8521C21.8337 16.9175 21.8337 16.9566 21.8337 17.0089Z" fill="black"/>
<path d="M24.3285 8.25482C24.2109 8.28096 24.0803 8.29402 23.9627 8.32015C23.8321 8.34628 23.6884 8.38548 23.5707 8.4508C23.5184 8.47693 23.4531 8.50307 23.4008 8.51614C23.3224 8.54226 23.2702 8.58146 23.2049 8.62065C23.0742 8.69905 22.9566 8.77744 22.8391 8.86891C22.6954 8.97342 22.5778 9.09101 22.4471 9.22168C22.3294 9.32619 22.238 9.45686 22.1335 9.57445C22.0551 9.66589 21.9898 9.77042 21.9114 9.86188C21.8591 9.92722 21.8069 10.0056 21.7546 10.084C21.6501 10.2147 21.5848 10.3714 21.4933 10.5021C21.4149 10.6327 21.3366 10.7765 21.2712 10.9071C21.245 10.9594 21.2319 10.9986 21.2843 11.0378C21.245 11.0378 21.2319 11.0117 21.2189 10.9855C21.1405 10.9071 21.049 10.8418 20.9706 10.7765C20.8269 10.6719 20.7094 10.5674 20.5526 10.476C20.4873 10.4368 20.435 10.3976 20.3828 10.3584C20.3436 10.3322 20.3044 10.3061 20.2521 10.28C20.226 10.2669 20.226 10.2408 20.239 10.2277C20.2913 10.1624 20.3436 10.1101 20.3958 10.0579C20.4481 10.0056 20.5003 9.94028 20.5526 9.90107C20.6179 9.84882 20.6571 9.78348 20.7355 9.73123C20.8008 9.69204 20.84 9.6267 20.8923 9.57445C20.9706 9.49605 21.0621 9.41765 21.1405 9.33927C21.2582 9.23474 21.3627 9.11715 21.4933 9.02569C21.5848 8.94729 21.6632 8.86891 21.7677 8.80357C21.833 8.76438 21.8853 8.69905 21.9506 8.65985C22.1073 8.54226 22.2641 8.41161 22.4339 8.29402C22.5908 8.18949 22.7476 8.0719 22.9175 7.98044C23.0481 7.90205 23.1918 7.82366 23.3224 7.75833C23.44 7.69301 23.5707 7.64074 23.6884 7.58848C23.7929 7.53621 23.9105 7.51008 24.015 7.47089C24.0542 7.45783 24.0672 7.49702 24.0803 7.51008C24.1325 7.62767 24.1848 7.7322 24.224 7.84979C24.2632 7.96738 24.2762 8.08497 24.3154 8.20256C24.3285 8.20256 24.3285 8.22869 24.3285 8.25482Z" fill="#FE8E00"/>
<path d="M9.67162 11.025C9.71082 10.9859 9.71082 10.9466 9.65855 10.8683C9.61936 10.8029 9.58016 10.7507 9.56709 10.6723C9.56709 10.6461 9.54096 10.6461 9.5279 10.6331C9.4495 10.5024 9.37112 10.3718 9.29272 10.2411C9.24046 10.1497 9.17513 10.0713 9.12287 9.99286C9.04448 9.87527 8.96608 9.77076 8.88769 9.66623C8.7701 9.5225 8.65251 9.37878 8.52186 9.24813C8.4304 9.16973 8.36507 9.07828 8.26054 8.99989C8.15601 8.92149 8.06457 8.83004 7.96004 8.76471C7.86858 8.69939 7.76405 8.64712 7.67259 8.56872C7.6334 8.54259 7.56806 8.51646 7.52887 8.5034C7.34596 8.425 7.16304 8.34662 6.96705 8.30741C6.8756 8.28128 6.77108 8.26822 6.67961 8.25516C6.62736 8.25516 6.61428 8.26822 6.61428 8.32048C6.61428 8.33354 6.61428 8.34662 6.60122 8.35968C6.58815 8.29435 6.61428 8.24209 6.62736 8.17676C6.66655 7.99385 6.70574 7.82399 6.78414 7.65414C6.81027 7.58881 6.84946 7.53655 6.8756 7.45815C6.88867 7.41896 6.91479 7.4059 6.95399 7.41896C7.12385 7.48428 7.28063 7.54962 7.43741 7.61494C7.54194 7.66721 7.65953 7.71946 7.76405 7.7848C7.85551 7.83705 7.96004 7.88932 8.0515 7.94158C8.19522 8.03304 8.33894 8.1245 8.46959 8.21595C8.57412 8.28128 8.67864 8.35968 8.7701 8.43807C8.91382 8.55566 9.05754 8.67325 9.21432 8.79084C9.33191 8.8823 9.43644 8.98682 9.55403 9.07828C9.61936 9.13054 9.69775 9.19587 9.75002 9.26119C9.82841 9.33959 9.91986 9.40491 9.99826 9.48331C10.0767 9.56171 10.155 9.64009 10.2334 9.71849C10.3902 9.86221 10.534 10.019 10.6907 10.1627C10.7299 10.1889 10.7299 10.215 10.6907 10.2411C10.5993 10.3064 10.5078 10.3587 10.4164 10.424C10.338 10.4763 10.2596 10.5286 10.1942 10.5939C10.1028 10.6723 9.99826 10.7507 9.89373 10.8291C9.84148 10.8683 9.78921 10.9336 9.72389 10.9728C9.71082 11.012 9.69775 11.025 9.67162 11.025Z" fill="#FE8E00"/>
<path d="M12.2306 14.6048C12.1914 14.5265 12.113 14.435 12.0738 14.3827C12.0085 14.3044 11.904 14.1868 11.7994 14.1084C11.6949 14.03 11.6035 13.9516 11.4859 13.8993C11.1854 13.7687 10.8848 13.7817 10.5974 13.9124C10.3622 14.0169 10.1532 14.1737 10.0094 14.3958C9.99638 14.4089 9.99638 14.4219 9.98332 14.435C9.77427 14.7486 9.77427 15.1405 9.99638 15.441C10.0617 15.5325 10.1401 15.6109 10.2708 15.624C10.4014 15.637 10.5451 15.6501 10.6758 15.6631C10.9371 15.6762 11.2115 15.6631 11.4728 15.637C11.6557 15.6109 11.8386 15.5848 12.0216 15.5194C12.1261 15.4802 12.2045 15.441 12.2567 15.3365C12.3743 15.0883 12.3482 14.8531 12.2306 14.6048Z" fill="#F8FBF4"/>
<path d="M18.7364 15.3495C18.7886 15.4541 18.8802 15.4932 18.9716 15.5325C19.1415 15.5978 19.3374 15.6239 19.5203 15.65C19.7816 15.6762 20.056 15.6892 20.3174 15.6762C20.448 15.6762 20.5917 15.65 20.7224 15.637C20.853 15.6239 20.9314 15.5455 20.9967 15.4541C21.2188 15.1535 21.2188 14.7616 21.0098 14.448C20.9967 14.4349 20.9967 14.4219 20.9837 14.4088C20.84 14.1867 20.644 14.0299 20.3958 13.9254C20.1084 13.7947 19.8078 13.7686 19.5073 13.9123C19.3897 13.9646 19.2852 14.043 19.1937 14.1214C19.0892 14.1998 18.9847 14.3173 18.9194 14.3957C18.8802 14.448 18.8017 14.5525 18.7625 14.6179C18.6449 14.853 18.6188 15.0882 18.7364 15.3495Z" fill="#F8FBF4"/>
<path d="M17.6787 25.397C17.6265 25.3186 17.5873 25.2533 17.5481 25.1749C17.535 25.1488 17.535 25.1227 17.535 25.0966C17.535 24.796 17.535 24.4955 17.535 24.195C17.535 24.1427 17.535 24.1297 17.4697 24.1427C16.7642 24.2603 16.0586 24.3126 15.34 24.2734C14.9873 24.2603 14.6345 24.2211 14.2817 24.1558C14.2295 24.1427 14.2164 24.1558 14.2164 24.2081C14.2295 24.5085 14.2295 24.8221 14.2425 25.1227C14.2425 25.2403 14.1772 25.3056 14.1249 25.384C14.1119 25.4101 14.0988 25.3709 14.0857 25.3578C13.9943 25.2272 13.9289 25.0835 13.8767 24.9266C13.8375 24.809 13.7983 24.6784 13.7722 24.5608C13.7591 24.5216 13.7591 24.5216 13.7199 24.5216C13.7068 24.5216 13.6807 24.5216 13.6676 24.5216C13.537 24.5347 13.537 24.5347 13.5109 24.404C13.4847 24.2995 13.4716 24.195 13.4716 24.0905C13.4716 24.0513 13.4586 24.0252 13.4325 23.999C13.3802 23.9468 13.3279 23.8945 13.2626 23.8423C13.2234 23.8161 13.2365 23.777 13.2365 23.7507C13.2495 23.7246 13.2757 23.7376 13.3018 23.7376C13.5631 23.7376 13.8244 23.7376 14.0727 23.7376C14.1119 23.7376 14.138 23.7507 14.138 23.8031C14.138 23.8423 14.1511 23.8423 14.1903 23.8423C14.5561 23.8553 14.935 23.8553 15.3008 23.8684C15.34 23.8684 15.3662 23.8553 15.3792 23.8292C15.4315 23.7507 15.4838 23.6723 15.523 23.5939C15.5622 23.5286 15.5883 23.5025 15.6667 23.5155C15.7059 23.5286 15.7189 23.5025 15.7189 23.4633C15.7189 23.2412 15.7189 23.0322 15.7189 22.8101C15.7189 22.7578 15.7059 22.7448 15.6667 22.7317C15.34 22.6011 15.0395 22.4442 14.7782 22.209C14.5822 22.0392 14.4254 21.8432 14.3601 21.595C14.3471 21.5297 14.334 21.4774 14.334 21.4121C14.334 21.2291 14.334 21.0462 14.334 20.8763C14.334 20.5628 14.5692 20.3276 14.8697 20.3276C15.4707 20.3276 16.0848 20.3276 16.6858 20.3276C16.921 20.3276 17.2607 20.5889 17.2607 20.9155C17.2607 21.0854 17.2607 21.2552 17.2476 21.4252C17.2345 21.8171 17.0647 22.1306 16.7773 22.3788C16.5943 22.5356 16.3853 22.6533 16.1501 22.7317C16.1109 22.7448 16.0978 22.7578 16.0978 22.797C16.0978 23.0191 16.0978 23.2412 16.0978 23.4633C16.0978 23.5025 16.1109 23.5155 16.1501 23.5155C16.2285 23.5025 16.2677 23.5286 16.3069 23.5939C16.3461 23.6723 16.3984 23.7376 16.4506 23.8161C16.4637 23.8423 16.4898 23.8553 16.5159 23.8553C16.8295 23.8553 17.1431 23.8553 17.4566 23.8684C17.5089 23.8684 17.522 23.8292 17.5481 23.8031C17.5742 23.7639 17.6003 23.7507 17.6395 23.7507C17.8748 23.7507 18.11 23.7507 18.3451 23.7507C18.4105 23.7507 18.4105 23.7639 18.3974 23.8161C18.3321 24.0382 18.2798 24.2603 18.2276 24.4955C18.2145 24.5347 18.2014 24.5608 18.1492 24.5608C17.9793 24.5608 17.9793 24.5608 17.914 24.7176C17.8618 24.9266 17.7703 25.1619 17.6787 25.397Z" fill="black"/>
<path d="M15.7585 24.4955C16.059 24.4955 16.3465 24.4955 16.647 24.4955C16.6992 24.4955 16.7123 24.5086 16.7123 24.5608C16.7123 24.7176 16.7123 24.7176 16.5816 24.796C16.464 24.8744 16.464 24.8744 16.3465 24.7829C16.2289 24.6915 16.2289 24.6915 16.1243 24.796C16.059 24.8613 16.0067 24.9397 15.9414 25.005C15.863 25.0835 15.7324 25.0835 15.667 24.9789C15.6148 24.9005 15.5625 24.809 15.5102 24.7307C15.4841 24.6915 15.458 24.6784 15.4188 24.6784C15.2751 24.6784 15.2751 24.6784 15.2228 24.796C15.1967 24.8482 15.1836 24.8613 15.1313 24.8352C15.0399 24.809 14.9484 24.7698 14.857 24.7176C14.8178 24.7045 14.8047 24.6784 14.8047 24.6392C14.8047 24.4824 14.8047 24.4824 14.9615 24.4824C15.2228 24.4955 15.4972 24.4955 15.7585 24.4955Z" fill="black"/>
</svg>
