<svg width="32" height="32" viewBox="0 0 32 32" fill="none" xmlns="http://www.w3.org/2000/svg">
<path d="M16 32C24.8366 32 32 24.8366 32 16C32 7.16344 24.8366 0 16 0C7.16344 0 0 7.16344 0 16C0 24.8366 7.16344 32 16 32Z" fill="#202427"/>
<path d="M19.7725 11.0898C19.9681 11.4528 19.9845 11.9348 20.3311 12.2046C20.5049 12.224 20.6808 12.2085 20.8485 12.1592C20.8715 12.2805 20.8947 12.4009 20.9194 12.5222C21.3483 12.3221 21.7327 12.0378 22.0498 11.6864C22.2891 11.3695 22.577 10.9636 22.4046 10.5494C22.207 10.0123 21.9339 9.50612 21.5936 9.04606C21.3699 8.77214 21.1588 8.48912 20.9492 8.20451C20.8902 8.13976 20.8449 8.06378 20.816 7.98112C20.7871 7.89846 20.7751 7.81082 20.7808 7.72343C20.8807 7.40743 21.2256 7.21354 21.2668 6.87278C21.3023 6.23668 21.8609 5.78947 21.9623 5.17149C21.8823 5.11308 21.7982 5.06042 21.7107 5.0139C21.7313 4.83482 21.8279 4.63432 21.7165 4.46684C21.6572 4.42507 21.5885 4.39862 21.5165 4.38984C21.4445 4.38107 21.3715 4.39025 21.3039 4.41655C20.9475 4.51884 20.6224 4.7028 20.2685 4.81175C20.5341 4.55845 20.8905 4.43962 21.1769 4.21519C20.8623 4.33773 20.5404 4.44079 20.2132 4.52379C20.5101 4.25104 20.8589 4.04086 21.2388 3.90579C21.1083 3.78115 20.9462 3.69463 20.77 3.65565C20.5939 3.61666 20.4104 3.6267 20.2395 3.68466C19.8161 3.82517 19.4424 4.0854 19.1637 4.43387C18.6728 5.14524 18.2295 5.88835 17.8369 6.65833C17.6686 6.94299 17.5572 7.297 17.2519 7.46942C16.7449 7.65564 16.2538 7.88245 15.7833 8.14765C15.4094 8.36383 15.0206 8.55325 14.6199 8.71448C14.1333 8.97937 13.6874 9.31281 13.2957 9.70459C12.9449 9.92334 12.6639 10.2376 12.4854 10.6105C12.2551 11.4547 12.3344 12.3535 12.709 13.1444C12.929 13.9022 13.2755 14.6174 13.7338 15.2598C14.174 15.7902 14.7104 16.2327 15.3147 16.5643C15.8451 16.9007 16.3962 17.2033 16.9648 17.4702C17.1663 17.5379 17.3516 17.6463 17.5094 17.7887C17.536 17.908 17.5365 18.0316 17.5109 18.1511C17.4852 18.2706 17.4341 18.3831 17.3609 18.481C16.987 19.1272 16.4762 19.6837 15.8642 20.1113C15.0855 20.5694 14.2409 20.9045 13.36 21.1047C13.2577 21.1089 13.1557 21.0914 13.0605 21.0536C13.0395 20.6723 13.042 20.2901 13.068 19.9092C12.8806 19.9504 12.695 19.9966 12.5061 20.0313C12.5638 19.745 12.8295 19.3993 12.577 19.1361C12.2816 18.8407 11.8328 18.8027 11.4912 18.5751C11.5052 18.4224 11.5209 18.2706 11.5324 18.118C11.3005 17.9249 11.0194 17.8003 10.7206 17.7582C10.3864 17.7698 10.2107 18.0982 10.0605 18.3515C9.74604 18.9397 9.54588 19.5823 9.47061 20.245C9.41605 20.9456 9.59348 21.6446 9.97555 22.2343C10.228 22.8492 10.5752 23.4207 11.0044 23.9282C11.1165 23.9995 11.2049 24.1025 11.2584 24.2242C11.3118 24.3458 11.328 24.4806 11.3047 24.6114C11.0378 25.3266 10.902 26.084 10.9038 26.8474C10.9544 27.0874 11.0713 27.3083 11.2412 27.4852C11.3805 27.717 11.4916 27.9646 11.572 28.2228C11.5871 28.2731 11.6185 28.3171 11.6612 28.3477C11.7039 28.3783 11.7555 28.3939 11.808 28.3919C12.0774 28.3638 12.345 28.32 12.6093 28.2608C12.6546 28.3399 12.7008 28.42 12.7463 28.5H12.8509C13.0286 28.2182 13.1463 27.9028 13.1967 27.5735C13.3213 27.1986 13.4746 26.8339 13.6554 26.4827C13.7643 26.2995 13.6686 26.0644 13.8006 25.8903C13.9068 25.6482 14.0429 25.4203 14.2057 25.2121C14.4985 25.1017 14.8031 25.0253 15.1133 24.9843C16.6164 24.6001 18.0065 23.8637 19.1686 22.8358C19.5786 22.4596 19.9574 22.0495 20.3534 21.6584C20.3336 21.8119 20.3154 21.9662 20.3023 22.1222C20.5 21.9194 20.6539 21.6782 20.7544 21.4134C20.6381 21.4744 20.5225 21.538 20.4062 21.5999C20.6842 21.1254 20.8992 20.6167 21.0457 20.0866C21.1279 19.7569 21.0935 19.4088 20.9483 19.1015C20.8242 18.8459 20.7293 18.5772 20.6653 18.3004C20.49 17.7548 20.226 17.2419 19.884 16.7822C19.4804 16.1554 18.9948 15.5855 18.44 15.0875C17.6785 14.4489 16.7074 14.1452 15.9153 13.5561C16.3533 12.923 16.9356 12.4032 17.6142 12.0396C18.0198 11.8522 18.4008 11.6155 18.7486 11.3349C17.9683 11.6395 17.2372 12.0574 16.5786 12.5751C16.275 12.7781 16.011 13.0322 15.7263 13.2591C15.7665 13.0423 15.8735 12.8435 16.0324 12.6906C16.6975 12.1109 17.4463 11.6349 18.2535 11.2788C18.5184 11.1449 18.7966 11.0393 19.0836 10.9636C19.0168 11.08 18.9466 11.1955 18.8782 11.3119C19.1768 11.245 19.4574 11.0487 19.7725 11.0898ZM14.7453 22.1311C15.2073 21.7722 15.7593 21.556 16.2528 21.245C16.5715 21.0285 16.9143 20.8497 17.2742 20.712C17.2338 20.9596 17.0003 21.0849 16.8237 21.2302C16.2152 21.6963 15.5015 22.0057 14.7453 22.1311ZM17.3872 21.2499C17.2352 21.4979 17.02 21.701 16.7635 21.8382C16.5136 22.0128 16.2234 22.121 15.9202 22.1526C16.3464 21.7598 16.8445 21.4533 17.3872 21.2499ZM18.7627 22.2829C18.4262 22.7975 17.9463 23.2023 17.3823 23.4471C17.0039 23.673 16.5838 23.82 16.1471 23.8794C16.1785 23.7747 16.1702 23.6336 16.2965 23.5923C16.8239 23.3403 17.3341 23.0536 17.8237 22.7342C18.0937 22.5071 18.4167 22.3519 18.7627 22.2829ZM14.4772 10.2771C14.5693 10.1364 14.6916 10.018 14.8353 9.93058C15.54 9.47906 16.2813 9.08743 17.0514 8.75983C17.2521 8.6754 17.4682 8.63382 17.6859 8.63776C17.6133 8.87042 17.3682 8.94714 17.1694 9.0387C16.4685 9.33515 15.7835 9.66813 15.1175 10.0363C14.9199 10.1537 14.7031 10.2352 14.4772 10.2772V10.2771ZM15.1372 10.4768C15.1985 10.3737 15.282 10.2855 15.3815 10.2186C15.9769 9.8377 16.5986 9.49967 17.242 9.20702C17.3891 9.1454 17.5456 9.10914 17.7049 9.09977C17.6405 9.30027 17.431 9.36711 17.2626 9.45536C16.7065 9.71855 16.1529 9.98753 15.6224 10.3003C15.4752 10.3932 15.3097 10.4534 15.1372 10.4768L15.1372 10.4768ZM18.8146 10.5189C18.0044 10.8688 17.2272 11.2895 16.4507 11.7079C16.1471 11.8572 15.8996 12.1361 15.5539 12.1848L15.5935 12.0264C16.2778 11.3974 17.0669 10.8931 17.9252 10.5363C18.2753 10.3244 18.6768 10.2122 19.0861 10.212C19.0919 10.377 18.9475 10.4645 18.8147 10.5189L18.8146 10.5189ZM19.426 23.0115C19.6902 22.7188 19.9691 22.4399 20.2618 22.1757C20.1178 22.5552 19.8663 22.8846 19.5382 23.1237C19.1681 23.4551 18.7551 23.7354 18.3105 23.957C18.0067 24.1662 17.6633 24.3108 17.3014 24.3819C18.0395 23.9733 18.7494 23.5155 19.426 23.0115L19.426 23.0115ZM20.2618 22.1757C20.1178 22.5552 19.8663 22.8846 19.5382 23.1237C19.1681 23.4551 18.7551 23.7354 18.3105 23.957C18.0067 24.1662 17.6633 24.3108 17.3014 24.3819C18.0395 23.9733 18.7493 23.5154 19.426 23.0115C19.6902 22.7188 19.9692 22.4399 20.2618 22.1757L20.2618 22.1757Z" fill="white"/>
</svg>
