<svg width="26" height="26" viewBox="0 0 26 26" fill="none" xmlns="http://www.w3.org/2000/svg">
<path opacity="0.2" fill-rule="evenodd" clip-rule="evenodd" d="M13 26C20.1797 26 26 20.1797 26 13C26 5.8203 20.1797 0 13 0C5.8203 0 0 5.8203 0 13C0 20.1797 5.8203 26 13 26Z" fill="#83BD67"/>
<path fill-rule="evenodd" clip-rule="evenodd" d="M11.8611 7C12.5751 7 13.2864 7 14.0004 7C13.9584 7.48297 13.9137 7.96857 13.8744 8.45155C14.7064 8.51192 15.5175 8.77966 16.2472 9.17601C15.9323 9.96872 15.6147 10.7614 15.297 11.5541C14.6828 11.0318 13.8744 10.7431 13.0685 10.7536C12.8664 10.7588 12.6564 10.7982 12.4884 10.9137C12.3782 10.9898 12.2968 11.1079 12.2732 11.2392C12.2548 11.3441 12.2601 11.4623 12.3178 11.5568C12.3834 11.6618 12.4989 11.7248 12.6144 11.7641C12.8507 11.8481 13.1053 11.8534 13.352 11.8796C13.9321 11.9505 14.5148 12.0502 15.0634 12.2576C15.4887 12.4203 15.8955 12.6645 16.1869 13.0214C16.4625 13.3495 16.6226 13.7643 16.683 14.1895C16.7538 14.6803 16.7328 15.1896 16.5806 15.6673C16.4625 16.0505 16.2604 16.4075 15.9979 16.7094C15.4545 17.3393 14.6566 17.7173 13.8376 17.8144C13.8639 18.3315 13.8954 18.846 13.9242 19.3631C13.247 19.3631 12.5724 19.3631 11.8978 19.3631C11.9241 18.8512 11.9582 18.3394 11.9818 17.8276C11.4385 17.8092 10.9004 17.6884 10.3938 17.4968C9.90295 17.3105 9.43573 17.0637 9 16.775C9.32023 15.9508 9.64047 15.1266 9.96332 14.2997C10.3282 14.6068 10.7167 14.893 11.1419 15.1108C11.5986 15.3444 12.1052 15.4941 12.6197 15.4993C12.8638 15.5019 13.1158 15.4888 13.3468 15.4048C13.4885 15.3523 13.6276 15.2604 13.6906 15.1161C13.7562 14.9638 13.751 14.7722 13.6513 14.6357C13.5804 14.5439 13.4806 14.4809 13.3756 14.4362C13.2339 14.3785 13.0869 14.347 12.9373 14.3234C12.3861 14.2341 11.8322 14.1606 11.2994 13.9874C10.8715 13.8483 10.4542 13.654 10.1129 13.3548C9.8977 13.1684 9.71921 12.9401 9.59322 12.6828C9.40423 12.2996 9.33336 11.8665 9.33861 11.4413C9.33861 10.9662 9.43573 10.4832 9.67196 10.0658C9.8767 9.69311 10.1891 9.38862 10.5408 9.15501C10.966 8.87415 11.4411 8.68254 11.9241 8.52767C11.9031 8.01845 11.8821 7.50922 11.8611 7Z" fill="#83BD67"/>
</svg>
