<svg width="30" height="30" viewBox="0 0 30 30" fill="none" xmlns="http://www.w3.org/2000/svg">
<path d="M2.91711 11.2998L15.0004 4.35811L27.0838 11.2998C27.2742 11.3994 27.4958 11.4216 27.7022 11.3617C27.9087 11.3018 28.084 11.1645 28.1915 10.9784C28.2991 10.7923 28.3306 10.5719 28.2795 10.3631C28.2283 10.1543 28.0985 9.97341 27.9171 9.85811L15.0004 2.43311L2.08378 9.85811C1.98419 9.9102 1.89617 9.9819 1.82502 10.0689C1.75386 10.1559 1.70103 10.2564 1.66972 10.3643C1.6384 10.4723 1.62925 10.5854 1.6428 10.697C1.65635 10.8086 1.69233 10.9162 1.74858 11.0135C1.80482 11.1109 1.88017 11.1958 1.97009 11.2632C2.06 11.3306 2.16263 11.3792 2.27179 11.4059C2.38096 11.4327 2.4944 11.437 2.6053 11.4188C2.7162 11.4006 2.82227 11.3601 2.91711 11.2998Z" fill="black"/>
<path d="M3.33203 21.6669C3.33203 21.8879 3.41983 22.0999 3.57611 22.2562C3.73239 22.4124 3.94435 22.5002 4.16536 22.5002H25.832C26.053 22.5002 26.265 22.4124 26.4213 22.2562C26.5776 22.0999 26.6654 21.8879 26.6654 21.6669C26.6654 21.4459 26.5776 21.2339 26.4213 21.0776C26.265 20.9214 26.053 20.8336 25.832 20.8336H23.332V14.6919H21.6654V20.8336H15.832V14.6919H14.1654V20.8336H8.33203V14.6919H6.66536V20.8336H4.16536C3.94435 20.8336 3.73239 20.9214 3.57611 21.0776C3.41983 21.2339 3.33203 21.4459 3.33203 21.6669Z" fill="black"/>
<path d="M4.18359 11.6665H25.8503V13.3332H4.18359V11.6665Z" fill="black"/>
<path d="M27.5013 24.1665H2.5013C2.28029 24.1665 2.06833 24.2543 1.91205 24.4106C1.75577 24.5669 1.66797 24.7788 1.66797 24.9998C1.66797 25.2209 1.75577 25.4328 1.91205 25.5891C2.06833 25.7454 2.28029 25.8332 2.5013 25.8332H27.5013C27.7223 25.8332 27.9343 25.7454 28.0906 25.5891C28.2468 25.4328 28.3346 25.2209 28.3346 24.9998C28.3346 24.7788 28.2468 24.5669 28.0906 24.4106C27.9343 24.2543 27.7223 24.1665 27.5013 24.1665Z" fill="black"/>
<path d="M18.4568 9.65022H21.1318L15.5401 6.43355C15.4388 6.37504 15.3238 6.34424 15.2068 6.34424C15.0897 6.34424 14.9748 6.37504 14.8734 6.43355L9.27344 9.65022H11.9484L15.1984 7.78355L18.4568 9.65022Z" fill="black"/>
</svg>
