<svg xmlns="http://www.w3.org/2000/svg" width="146" height="117" fill="none" viewBox="0 0 146 117">
  <path fill="url(#paint0_linear_1381_1321)" d="M105.669 59.886l-32.668 20.88-32.607-21.653a6.703 6.703 0 00-2.088-.9 7.59 7.59 0 00-2.364-.197c-.797.058-1.57.24-2.279.537a6.04 6.04 0 00-1.846 1.189 4.643 4.643 0 00-1.133 1.66 3.901 3.901 0 00-.248 1.877c.073.633.303 1.248.676 1.81.372.563.88 1.061 1.496 1.468l36.5 24.166c1.088.711 2.454 1.1 3.863 1.1 1.409 0 2.774-.389 3.863-1.1l36.5-23.345a5.312 5.312 0 001.528-1.45 4.154 4.154 0 00.711-1.807 3.883 3.883 0 00-.217-1.884 4.596 4.596 0 00-1.11-1.674 5.989 5.989 0 00-1.836-1.202 7.273 7.273 0 00-2.276-.551 7.593 7.593 0 00-2.368.184 6.71 6.71 0 00-2.097.892z"/>
  <path fill="url(#paint1_linear_1381_1321)" d="M69.108 56.89c1.088.71 2.454 1.1 3.863 1.1 1.409 0 2.774-.39 3.863-1.1l36.5-23.345a5.297 5.297 0 001.528-1.451 4.155 4.155 0 00.711-1.806 3.884 3.884 0 00-.217-1.884 4.598 4.598 0 00-1.11-1.674 5.962 5.962 0 00-1.826-1.215 7.255 7.255 0 00-2.273-.564 7.598 7.598 0 00-2.372.172c-.768.18-1.484.48-2.106.882L73.001 46.933 40.394 25.28c-1.242-.82-2.843-1.215-4.452-1.097-1.609.117-3.093.738-4.125 1.725-1.033.987-1.53 2.26-1.381 3.538.148 1.278.93 2.457 2.172 3.277l36.5 24.167z"/>
  <defs>
    <linearGradient id="paint0_linear_1381_1321" x1="73.009" x2="73.009" y1="57.995" y2="91.823" gradientUnits="userSpaceOnUse">
      <stop stop-color="#728AB7" stop-opacity=".72"/>
      <stop offset="1" stop-color="#1199FA"/>
    </linearGradient>
    <linearGradient id="paint1_linear_1381_1321" x1="73.009" x2="73.009" y1="24.162" y2="57.989" gradientUnits="userSpaceOnUse">
      <stop stop-color="#728AB7" stop-opacity=".72"/>
      <stop offset="1" stop-color="#1199FA"/>
    </linearGradient>
  </defs>
</svg>
