<svg width="61" height="14" viewBox="0 0 61 14" fill="none" xmlns="http://www.w3.org/2000/svg">
<path d="M24.26 7.41C24.5133 7.45 24.7433 7.55333 24.95 7.72C25.1633 7.88667 25.33 8.09333 25.45 8.34C25.5767 8.58667 25.64 8.85 25.64 9.13C25.64 9.48333 25.55 9.80333 25.37 10.09C25.19 10.37 24.9267 10.5933 24.58 10.76C24.24 10.92 23.8367 11 23.37 11H20.77V4.03H23.27C23.7433 4.03 24.1467 4.11 24.48 4.27C24.8133 4.42333 25.0633 4.63333 25.23 4.9C25.3967 5.16667 25.48 5.46667 25.48 5.8C25.48 6.21333 25.3667 6.55667 25.14 6.83C24.92 7.09667 24.6267 7.29 24.26 7.41ZM21.68 7.04H23.21C23.6367 7.04 23.9667 6.94 24.2 6.74C24.4333 6.54 24.55 6.26333 24.55 5.91C24.55 5.55667 24.4333 5.28 24.2 5.08C23.9667 4.88 23.63 4.78 23.19 4.78H21.68V7.04ZM23.29 10.25C23.7433 10.25 24.0967 10.1433 24.35 9.93C24.6033 9.71667 24.73 9.42 24.73 9.04C24.73 8.65333 24.5967 8.35 24.33 8.13C24.0633 7.90333 23.7067 7.79 23.26 7.79H21.68V10.25H23.29ZM26.5628 8.24C26.5628 7.68 26.6761 7.19 26.9028 6.77C27.1295 6.34333 27.4395 6.01333 27.8328 5.78C28.2328 5.54667 28.6761 5.43 29.1628 5.43C29.6428 5.43 30.0595 5.53333 30.4128 5.74C30.7661 5.94667 31.0295 6.20667 31.2028 6.52V5.52H32.1228V11H31.2028V9.98C31.0228 10.3 30.7528 10.5667 30.3928 10.78C30.0395 10.9867 29.6261 11.09 29.1528 11.09C28.6661 11.09 28.2261 10.97 27.8328 10.73C27.4395 10.49 27.1295 10.1533 26.9028 9.72C26.6761 9.28667 26.5628 8.79333 26.5628 8.24ZM31.2028 8.25C31.2028 7.83667 31.1195 7.47667 30.9528 7.17C30.7861 6.86333 30.5595 6.63 30.2728 6.47C29.9928 6.30333 29.6828 6.22 29.3428 6.22C29.0028 6.22 28.6928 6.3 28.4128 6.46C28.1328 6.62 27.9095 6.85333 27.7428 7.16C27.5761 7.46667 27.4928 7.82667 27.4928 8.24C27.4928 8.66 27.5761 9.02667 27.7428 9.34C27.9095 9.64667 28.1328 9.88333 28.4128 10.05C28.6928 10.21 29.0028 10.29 29.3428 10.29C29.6828 10.29 29.9928 10.21 30.2728 10.05C30.5595 9.88333 30.7861 9.64667 30.9528 9.34C31.1195 9.02667 31.2028 8.66333 31.2028 8.25ZM34.5706 3.6V11H33.6606V3.6H34.5706ZM35.7816 8.24C35.7816 7.68 35.8949 7.19 36.1216 6.77C36.3482 6.34333 36.6582 6.01333 37.0516 5.78C37.4516 5.54667 37.8949 5.43 38.3816 5.43C38.8616 5.43 39.2782 5.53333 39.6316 5.74C39.9849 5.94667 40.2482 6.20667 40.4216 6.52V5.52H41.3416V11H40.4216V9.98C40.2416 10.3 39.9716 10.5667 39.6116 10.78C39.2582 10.9867 38.8449 11.09 38.3716 11.09C37.8849 11.09 37.4449 10.97 37.0516 10.73C36.6582 10.49 36.3482 10.1533 36.1216 9.72C35.8949 9.28667 35.7816 8.79333 35.7816 8.24ZM40.4216 8.25C40.4216 7.83667 40.3382 7.47667 40.1716 7.17C40.0049 6.86333 39.7782 6.63 39.4916 6.47C39.2116 6.30333 38.9016 6.22 38.5616 6.22C38.2216 6.22 37.9116 6.3 37.6316 6.46C37.3516 6.62 37.1282 6.85333 36.9616 7.16C36.7949 7.46667 36.7116 7.82667 36.7116 8.24C36.7116 8.66 36.7949 9.02667 36.9616 9.34C37.1282 9.64667 37.3516 9.88333 37.6316 10.05C37.9116 10.21 38.2216 10.29 38.5616 10.29C38.9016 10.29 39.2116 10.21 39.4916 10.05C39.7782 9.88333 40.0049 9.64667 40.1716 9.34C40.3382 9.02667 40.4216 8.66333 40.4216 8.25ZM45.5494 5.42C46.216 5.42 46.756 5.62333 47.1694 6.03C47.5827 6.43 47.7894 7.01 47.7894 7.77V11H46.8894V7.9C46.8894 7.35333 46.7527 6.93667 46.4794 6.65C46.206 6.35667 45.8327 6.21 45.3594 6.21C44.8794 6.21 44.496 6.36 44.2094 6.66C43.9294 6.96 43.7894 7.39667 43.7894 7.97V11H42.8794V5.52H43.7894V6.3C43.9694 6.02 44.2127 5.80333 44.5194 5.65C44.8327 5.49667 45.176 5.42 45.5494 5.42ZM48.9359 8.25C48.9359 7.68333 49.0492 7.19 49.2759 6.77C49.5025 6.34333 49.8159 6.01333 50.2159 5.78C50.6225 5.54667 51.0859 5.43 51.6059 5.43C52.2792 5.43 52.8325 5.59333 53.2659 5.92C53.7059 6.24667 53.9959 6.7 54.1359 7.28H53.1559C53.0625 6.94667 52.8792 6.68333 52.6059 6.49C52.3392 6.29667 52.0059 6.2 51.6059 6.2C51.0859 6.2 50.6659 6.38 50.3459 6.74C50.0259 7.09333 49.8659 7.59667 49.8659 8.25C49.8659 8.91 50.0259 9.42 50.3459 9.78C50.6659 10.14 51.0859 10.32 51.6059 10.32C52.0059 10.32 52.3392 10.2267 52.6059 10.04C52.8725 9.85333 53.0559 9.58667 53.1559 9.24H54.1359C53.9892 9.8 53.6959 10.25 53.2559 10.59C52.8159 10.9233 52.2659 11.09 51.6059 11.09C51.0859 11.09 50.6225 10.9733 50.2159 10.74C49.8159 10.5067 49.5025 10.1767 49.2759 9.75C49.0492 9.32333 48.9359 8.82333 48.9359 8.25ZM60.3501 8.05C60.3501 8.22333 60.3401 8.40667 60.3201 8.6H55.9401C55.9734 9.14 56.1567 9.56333 56.4901 9.87C56.8301 10.17 57.2401 10.32 57.7201 10.32C58.1134 10.32 58.4401 10.23 58.7001 10.05C58.9667 9.86333 59.1534 9.61667 59.2601 9.31H60.2401C60.0934 9.83667 59.8001 10.2667 59.3601 10.6C58.9201 10.9267 58.3734 11.09 57.7201 11.09C57.2001 11.09 56.7334 10.9733 56.3201 10.74C55.9134 10.5067 55.5934 10.1767 55.3601 9.75C55.1267 9.31667 55.0101 8.81667 55.0101 8.25C55.0101 7.68333 55.1234 7.18667 55.3501 6.76C55.5767 6.33333 55.8934 6.00667 56.3001 5.78C56.7134 5.54667 57.1867 5.43 57.7201 5.43C58.2401 5.43 58.7001 5.54333 59.1001 5.77C59.5001 5.99667 59.8067 6.31 60.0201 6.71C60.2401 7.10333 60.3501 7.55 60.3501 8.05ZM59.4101 7.86C59.4101 7.51333 59.3334 7.21667 59.1801 6.97C59.0267 6.71667 58.8167 6.52667 58.5501 6.4C58.2901 6.26667 58.0001 6.2 57.6801 6.2C57.2201 6.2 56.8267 6.34667 56.5001 6.64C56.1801 6.93333 55.9967 7.34 55.9501 7.86H59.4101Z" fill="#707070"/>
<path d="M13.4793 8.66667V10.8889C13.4793 11.5 13.0114 12 12.4394 12H2.03995C1.46798 12 1 11.5 1 10.8889V3.11111C1 2.5 1.46798 2 2.03995 2H12.4394C13.0114 2 13.4793 2.5 13.4793 3.11111V5.33333" stroke="#707070" stroke-linecap="round" stroke-linejoin="round"/>
<path d="M3.60156 2V12" stroke="#707070" stroke-linecap="round" stroke-linejoin="round"/>
<path d="M8.59412 5.33374H14.0018V8.66707H8.59412C7.71016 8.50041 7.24219 7.94485 7.24219 7.00041C7.24219 6.05596 7.71016 5.50041 8.59412 5.33374Z" stroke="#707070" stroke-linecap="round" stroke-linejoin="round"/>
<path d="M8.79688 6.99951H9.31685" stroke="#707070" stroke-linecap="round" stroke-linejoin="round"/>
</svg>
